<svg width="343" height="338" viewBox="0 0 343 338" fill="none" xmlns="http://www.w3.org/2000/svg">
<path d="M230.497 17.8144L230.516 17.8129L230.536 17.811L266.523 14.1943C268.606 13.9849 270.706 14.0058 272.785 14.2565L299.266 17.4501C301.361 17.7027 303.479 17.6893 305.57 17.4102L306.006 17.3521C318.974 15.6215 330.498 25.7095 330.498 38.7922C330.498 40.5843 330.693 42.371 331.081 44.1207L334.147 57.9569C334.773 60.7815 334.965 63.685 334.717 66.5675L332.95 87.0798C332.766 89.2261 332.801 91.3856 333.057 93.5245L334.661 106.929C334.948 109.326 334.929 111.749 334.605 114.141L332.706 128.16L328.104 145.965C327.439 148.54 327.102 151.188 327.102 153.847V167.965C327.102 171.057 327.558 174.133 328.454 177.092L331.963 188.685C332.457 190.317 332.803 191.989 332.998 193.682L334.812 209.431C335.004 211.093 335.048 212.769 334.946 214.439L332.838 248.758C332.73 250.52 332.77 252.288 332.958 254.044L334.212 265.748C334.772 270.979 333.874 276.262 331.617 281.014L329.541 285.383C327.948 288.736 326.96 292.344 326.624 296.041L325.337 310.164C325.1 312.759 324.015 315.203 322.25 317.119C320.006 319.555 316.845 320.941 313.534 320.941H310.247C308.262 320.941 306.288 320.635 304.396 320.035L297.935 317.985C293.627 316.618 289.076 316.194 284.591 316.742L275.38 317.867C273.041 318.152 270.676 318.147 268.339 317.85L263.889 317.286C256.748 316.38 249.523 318.114 243.571 322.162C237.854 326.051 230.844 327.553 224.035 326.348L215.537 324.844C213.725 324.524 211.889 324.362 210.048 324.362H190.297C188.658 324.362 187.021 324.221 185.406 323.94L174.503 322.04C170.22 321.294 165.828 321.443 161.605 322.477L131.448 329.862C129.229 330.405 126.953 330.68 124.669 330.68H88.4312C86.9517 330.68 85.4745 330.564 84.013 330.335L46.1696 324.397L23.7646 317.63C20.5695 316.665 17.7634 314.71 15.7506 312.048C13.1994 308.673 12.1124 304.414 12.7343 300.229L14.0943 291.077L14.0946 291.075L19.097 257.758C19.3295 256.209 19.4462 254.646 19.4462 253.08V220.491C19.4462 218.88 19.5827 217.272 19.8544 215.685L21.0525 208.682C22.0967 202.58 21.3194 196.305 18.8177 190.642L16.9226 186.352C15.0875 182.197 14.2717 177.664 14.5434 173.131L15.9053 150.405C16.0053 148.736 15.9722 147.062 15.8066 145.398L14.3446 130.721C14.1762 129.029 13.871 127.354 13.4322 125.712L8.81475 108.43C7.69738 104.248 7.5473 99.8666 8.3759 95.618L13.1717 71.0277C13.8058 67.7763 13.923 64.4452 13.5191 61.1573L11.4286 44.1396C10.1664 33.8646 14.8947 23.7734 23.598 18.1678C27.954 15.3622 33.0258 13.8702 38.2071 13.8702H50.3675C51.9482 13.8702 53.5262 14.0017 55.0851 14.2634L68.8858 16.5797C73.8916 17.4199 79.0263 17.038 83.8528 15.4664L99.0046 10.5328C101.854 9.60494 104.832 9.13232 107.829 9.13232H137.567C139.366 9.13232 141.161 9.3027 142.928 9.64116L164.847 13.8395L190.358 19.4673C193.35 20.1275 196.423 20.3474 199.479 20.1203L230.497 17.8144Z" stroke="white" stroke-width="3"/>
<path d="M231.014 10.542L231.034 10.5405L231.053 10.5385L268.06 6.76745C270.172 6.55224 272.301 6.57367 274.408 6.83134L301.618 10.1586C303.79 10.4242 305.987 10.41 308.155 10.1166C321.704 8.28326 333.767 18.8172 333.767 32.4883C333.767 34.3243 333.965 36.1551 334.357 37.9488L337.843 53.8997C338.28 55.8984 338.5 57.9384 338.5 59.9843V86.5V86.5954L338.512 86.6899L341.5 110.095V121.989C341.5 125.141 340.977 128.271 339.953 131.252L335.478 144.273C334.345 147.568 333.767 151.028 333.767 154.511V174.5V174.603L333.781 174.704L336.019 190.962L336.023 190.998L338.215 210.299C338.401 211.939 338.445 213.591 338.345 215.238L336.163 251.264C336.057 253.003 336.096 254.747 336.279 256.479L337.63 269.264C338.176 274.429 337.3 279.646 335.096 284.35L332.663 289.543C331.106 292.865 330.142 296.434 329.814 300.088L328.459 315.158C328.219 317.827 327.114 320.345 325.312 322.329C322.98 324.894 319.675 326.357 316.208 326.357H312.937C310.889 326.357 308.855 326.038 306.906 325.411L300.183 323.248C295.824 321.846 291.211 321.411 286.666 321.974L277.068 323.162C274.698 323.456 272.299 323.45 269.93 323.145L265.354 322.556C258.003 321.611 250.562 323.415 244.46 327.623C238.586 331.674 231.35 333.24 224.327 331.98L215.611 330.416C213.775 330.087 211.913 329.921 210.048 329.921H189.691C188.029 329.921 186.371 329.776 184.734 329.486L173.416 327.487C169.076 326.721 164.624 326.874 160.347 327.936L129.236 335.66C126.989 336.218 124.683 336.5 122.368 336.5H85.0678C83.568 336.5 82.0705 336.382 80.5893 336.146L41.6873 329.956L18.7691 322.938C15.4187 321.912 12.483 319.844 10.3886 317.035C7.77537 313.53 6.66318 309.129 7.29715 304.803L8.70726 295.182L8.70759 295.179L13.8635 260.36C14.0897 258.832 14.2033 257.29 14.2033 255.746V221.542C14.2033 219.953 14.3362 218.366 14.6006 216.8L15.9362 208.885C16.9532 202.858 16.1949 196.666 13.7539 191.062L11.4666 185.812C9.67552 181.701 8.8799 177.225 9.14447 172.748L10.5743 148.554C10.6716 146.908 10.6395 145.257 10.4783 143.616L8.95099 128.068C8.78694 126.398 8.4897 124.743 8.06211 123.121L3.19069 104.634C2.10248 100.504 1.9563 96.1826 2.76294 91.9888L7.80936 65.7518C8.42656 62.5429 8.5407 59.2575 8.14768 56.0135L5.93313 37.7344C4.65343 27.1717 9.48425 16.7989 18.3928 10.981C22.9357 8.01418 28.2442 6.43431 33.6701 6.43431H46.0368C47.6392 6.43431 49.2388 6.56944 50.8184 6.83828L65.1264 9.27331C70.1974 10.1363 75.4025 9.74436 80.2871 8.13166L96.021 2.9369C98.9039 1.98508 101.92 1.5 104.956 1.5H135.605C137.428 1.5 139.248 1.67505 141.038 2.02275L163.591 6.40276L189.853 12.2773C192.884 12.9554 195.999 13.1814 199.097 12.9479L231.014 10.542Z" stroke="white" stroke-width="3"/>
<path d="M231.014 10.542L231.034 10.5405L231.053 10.5385L268.06 6.76745C270.172 6.55224 272.301 6.57367 274.408 6.83134L301.618 10.1586C303.79 10.4242 305.987 10.41 308.155 10.1166C321.704 8.28326 333.767 18.8172 333.767 32.4883C333.767 34.3243 333.965 36.1551 334.357 37.9488L337.843 53.8997C338.28 55.8984 338.5 57.9384 338.5 59.9843V86.5V86.5954L338.512 86.6899L341.5 110.095V121.989C341.5 125.141 340.977 128.271 339.953 131.252L335.478 144.273C334.345 147.568 333.767 151.028 333.767 154.511V174.5V174.603L333.781 174.704L336.019 190.962L336.023 190.998L338.215 210.299C338.401 211.939 338.445 213.591 338.345 215.238L336.163 251.264C336.057 253.003 336.096 254.747 336.279 256.479L337.63 269.264C338.176 274.429 337.3 279.646 335.096 284.35L332.663 289.543C331.106 292.865 330.142 296.434 329.814 300.088L328.459 315.158C328.219 317.827 327.114 320.345 325.312 322.329C322.98 324.894 319.675 326.357 316.208 326.357H312.937C310.889 326.357 308.855 326.038 306.906 325.411L300.183 323.248C295.824 321.846 291.211 321.411 286.666 321.974L277.068 323.162C274.698 323.456 272.299 323.45 269.93 323.145L265.354 322.556C258.003 321.611 250.562 323.415 244.46 327.623C238.586 331.674 231.35 333.24 224.327 331.98L215.611 330.416C213.775 330.087 211.913 329.921 210.048 329.921H189.691C188.029 329.921 186.371 329.776 184.734 329.486L173.416 327.487C169.076 326.721 164.624 326.874 160.347 327.936L129.236 335.66C126.989 336.218 124.683 336.5 122.368 336.5H85.0678C83.568 336.5 82.0705 336.382 80.5893 336.146L41.6873 329.956L18.7691 322.938C15.4187 321.912 12.483 319.844 10.3886 317.035C7.77537 313.53 6.66318 309.129 7.29715 304.803L8.70726 295.182L8.70759 295.179L13.8635 260.36C14.0897 258.832 14.2033 257.29 14.2033 255.746V221.542C14.2033 219.953 14.3362 218.366 14.6006 216.8L15.9362 208.885C16.9532 202.858 16.1949 196.666 13.7539 191.062L11.4666 185.812C9.67552 181.701 8.8799 177.225 9.14447 172.748L10.5743 148.554C10.6716 146.908 10.6395 145.257 10.4783 143.616L8.95099 128.068C8.78694 126.398 8.4897 124.743 8.06211 123.121L3.19069 104.634C2.10248 100.504 1.9563 96.1826 2.76294 91.9888L7.80936 65.7518C8.42656 62.5429 8.5407 59.2575 8.14768 56.0135L5.93313 37.7344C4.65343 27.1717 9.48425 16.7989 18.3928 10.981C22.9357 8.01418 28.2442 6.43431 33.6701 6.43431H46.0368C47.6392 6.43431 49.2388 6.56944 50.8184 6.83828L65.1264 9.27331C70.1974 10.1363 75.4025 9.74436 80.2871 8.13166L96.021 2.9369C98.9039 1.98508 101.92 1.5 104.956 1.5H135.605C137.428 1.5 139.248 1.67505 141.038 2.02275L163.591 6.40276L189.853 12.2773C192.884 12.9554 195.999 13.1814 199.097 12.9479L231.014 10.542Z" stroke="white" stroke-width="3"/>
<path d="M228.029 22.8998L228.048 22.8983L228.068 22.8964L262.781 19.408C264.864 19.1986 266.964 19.2195 269.043 19.4701L294.559 22.5471C296.589 22.792 298.643 22.779 300.67 22.5085L301.094 22.452C313.611 20.7817 324.734 30.5191 324.734 43.1471C324.734 44.8846 324.924 46.6169 325.299 48.3133L328.234 61.5536C328.86 64.3784 329.052 67.2821 328.803 70.1648L327.116 89.7613C326.931 91.9077 326.967 94.0673 327.223 96.2064L328.748 108.952C329.035 111.349 329.016 113.772 328.692 116.164L326.871 129.601L322.451 146.705C321.786 149.279 321.449 151.928 321.449 154.587V167.978C321.449 171.07 321.904 174.145 322.8 177.105L326.129 188.099C326.623 189.731 326.969 191.403 327.164 193.096L328.899 208.161C329.091 209.823 329.135 211.499 329.033 213.169L327.004 246.204C326.895 247.967 326.935 249.735 327.124 251.491L328.299 262.459C328.859 267.689 327.961 272.973 325.703 277.725L323.888 281.546C322.295 284.899 321.307 288.508 320.97 292.205L319.741 305.695C319.513 308.195 318.468 310.55 316.767 312.396C314.605 314.743 311.56 316.077 308.369 316.077H305.189C303.273 316.077 301.368 315.783 299.542 315.203L293.492 313.284C289.185 311.918 284.635 311.494 280.149 312.041L271.567 313.089C269.228 313.375 266.863 313.369 264.526 313.073L260.34 312.542C253.42 311.664 246.417 313.345 240.648 317.268C235.127 321.023 228.357 322.474 221.782 321.31L213.644 319.87C211.832 319.549 209.995 319.388 208.155 319.388H189.214C187.574 319.388 185.938 319.247 184.323 318.965L174.057 317.177C169.774 316.431 165.382 316.58 161.159 317.614L132.291 324.682C130.073 325.225 127.797 325.5 125.513 325.5H90.6437C89.1644 325.5 87.6872 325.385 86.2258 325.155L49.688 319.422L28.0125 312.876C24.9312 311.946 22.225 310.061 20.2838 307.493C17.8232 304.238 16.7748 300.131 17.3746 296.095L18.6904 287.241L18.6907 287.238L23.52 255.076C23.7525 253.528 23.8692 251.964 23.8692 250.399V219.024C23.8692 217.413 24.0058 215.805 24.2775 214.217L25.3731 207.815C26.4174 201.712 25.64 195.437 23.1381 189.773L21.519 186.108C19.6837 181.953 18.8679 177.42 19.1396 172.887L20.4384 151.213C20.5384 149.544 20.5054 147.87 20.3397 146.207L18.9408 132.162C18.7723 130.471 18.4671 128.796 18.0282 127.153L13.6392 110.727C12.5217 106.545 12.3716 102.163 13.2003 97.9143L17.7676 74.4967C18.4018 71.2451 18.5191 67.9138 18.1151 64.6256L16.1115 48.3162C14.8924 38.3929 19.459 28.6472 27.8645 23.2338C32.0711 20.5246 36.9688 19.0839 41.9723 19.0839H53.658C55.2386 19.0839 56.8165 19.2154 58.3753 19.477L71.4135 21.6653C76.4191 22.5054 81.5535 22.1235 86.3797 20.5521L100.667 15.9003C103.516 14.9726 106.494 14.5 109.49 14.5H138.018C139.817 14.5 141.612 14.6703 143.379 15.0088L164.496 19.0532L189.039 24.4673C192.031 25.1274 195.104 25.3473 198.16 25.1202L228.029 22.8998Z" stroke="white" stroke-width="3"/>
</svg>
