<svg width="224" height="104" viewBox="0 0 224 104" fill="none" xmlns="http://www.w3.org/2000/svg">
<path d="M10.4731 53.9276C62.8992 53.9276 116.697 50.2333 168.978 54.2798C184.043 55.4458 198.676 58.6818 213.811 58.6818" stroke="#0A41BC" stroke-width="3" stroke-linecap="round"/>
<path d="M213.811 57.097C213.586 55.305 211.724 54.7872 210.457 53.6634C203.784 47.7465 198.218 40.311 192.1 33.854C186.043 27.461 171.805 3.91992 160.505 3.91992C159.521 3.91992 161.28 7.66505 161.388 8.14591C163.036 15.5448 162.976 22.9614 162.976 30.5085C162.976 48.2152 158.957 71.3298 163.77 88.6158C164.035 89.5671 164.683 97.2305 165.8 96.3635C169.289 93.6566 172.378 91.335 176.567 89.4963C186.269 85.2378 194.668 77.9893 203.75 72.5923C207.802 70.1842 215.414 68.1459 216.988 63.436" stroke="#0A41BC" stroke-width="3" stroke-linecap="round"/>
<path d="M2 61.0877C54.4261 61.0877 108.224 57.3934 160.505 61.4399C175.57 62.6059 190.202 65.842 205.338 65.842" stroke="#0A41BC" stroke-width="3" stroke-linecap="round"/>
<path d="M208.345 62.1771C208.12 60.3851 206.258 59.8672 204.991 58.7434C198.318 52.8265 192.752 45.3911 186.634 38.9341C180.577 32.541 166.339 9 155.039 9C154.055 9 155.815 12.7451 155.922 13.226C157.57 20.6248 157.51 28.0415 157.51 35.5885C157.51 53.2953 153.491 76.4098 158.305 93.6959C158.569 94.6472 159.217 102.311 160.334 101.444C163.823 98.7367 166.912 96.4151 171.101 94.5763C180.803 90.3178 189.203 83.0694 198.284 77.6724C202.336 75.2643 209.948 73.226 211.522 68.5161" stroke="#0A41BC" stroke-width="3" stroke-linecap="round"/>
<path d="M18.4922 49.9276C70.9183 49.9276 124.716 46.2333 176.997 50.2798C192.062 51.4458 206.695 54.6818 221.83 54.6818" stroke="#0A41BC" stroke-width="3" stroke-linecap="round"/>
<path d="M218.823 55.1771C218.598 53.3851 216.736 52.8672 215.469 51.7434C208.797 45.8265 203.23 38.3911 197.112 31.9341C191.055 25.541 176.817 2 165.517 2C164.533 2 166.293 5.74513 166.4 6.22599C168.048 13.6248 167.988 21.0415 167.988 28.5885C167.988 46.2953 163.969 69.4098 168.783 86.6959C169.047 87.6472 169.695 95.3106 170.812 94.4436C174.301 91.7367 177.39 89.4151 181.579 87.5763C191.281 83.3178 199.681 76.0694 208.762 70.6724C212.814 68.2643 220.426 66.226 222 61.5161" stroke="#0A41BC" stroke-width="3" stroke-linecap="round"/>
</svg>
