<svg width="1440" height="596" viewBox="0 0 1440 596" fill="none" xmlns="http://www.w3.org/2000/svg">
<path d="M922.229 537.74C938.357 556.633 926.75 555.502 952.5 564L-79.5014 564L-394.542 -251.206C-401.722 -253.576 -382.164 -255.434 -378.566 -255.255C-369.792 -254.819 -361.555 -257.569 -353.697 -260.512C-325.022 -271.251 -296.811 -286.395 -265.202 -290.99C-243.017 -294.215 -239.068 -280.126 -233.385 -262.751C-229.469 -250.782 -221.21 -240.574 -213.896 -230.167C-202.011 -213.255 -188.501 -198.184 -175.113 -182.151C-170.308 -176.397 -168.802 -170.234 -162.405 -169.801C-157.016 -169.435 -151.003 -167.24 -145.587 -166.58C-112.086 -162.501 -81.0474 -157.061 -49.1695 -146.54C-20.9678 -137.232 -28.473 -99.2889 -19.8038 -77.2926C-17.3343 -71.0269 -21.381 -64.7423 -20.3444 -58.3098C-19.1456 -50.8712 -19.5721 -43.7323 -18.7712 -36.2989C-17.949 -28.6689 -12.9488 -14.5855 -15.4045 -7.2226C-19.14 3.97719 14.9544 2.34883 23.3698 3.37364C29.9391 4.17364 37.3511 7.85861 43.4991 9.88773C71.9101 19.2646 101.745 22.0673 130.912 28.8981C145.337 32.2764 152.84 33.225 160.464 45.1249C166.041 53.8318 172.963 61.0231 181.11 67.9933C196.782 81.4006 209.499 95.7907 223.472 110.717C233.449 121.373 242.918 132.305 252.774 143.044C257.217 147.885 261.441 162.812 269.966 161.536C275.172 160.757 277.843 155.938 282.294 153.952C286.751 151.964 295.307 149.961 298.279 146.281C302.899 140.561 312.71 138.81 320.046 137.929C331.912 136.504 346.047 135.248 358.044 137.135C362.955 137.907 369.746 147.701 372.686 151.16C378.573 158.085 385.981 165.908 393.046 171.862C419.278 193.971 445.858 226.579 480.598 238.045L538.162 257.043C552.366 261.731 570.01 264.796 580.439 275.139C589.038 283.669 599.815 296.489 606.88 306.653C619.722 325.124 635.394 343.726 646.868 362.834C651.524 370.587 673.008 373.791 681.73 376.67L742.748 396.809C760.121 402.542 786.084 406.436 799.116 418.779C814.524 433.371 832.499 446.641 847.439 462.175C871.677 487.377 899.722 511.374 922.229 537.74Z" fill="#E6E4E4" stroke="#0837A2" stroke-width="3" stroke-linecap="round"/>
<path d="M967.575 594.176C941.826 585.678 929.574 569.699 913.445 550.806C890.938 524.44 862.894 500.443 838.655 475.241C823.716 459.707 805.74 446.437 790.333 431.845C777.3 419.503 751.337 415.609 733.964 409.875C713.625 403.162 693.286 396.449 672.946 389.736C664.224 386.858 642.74 383.653 638.084 375.9C626.61 356.792 610.938 338.191 598.097 319.719C591.031 309.555 580.254 296.735 571.655 288.206C561.226 277.862 543.582 274.797 529.378 270.109C510.19 263.776 491.002 257.444 471.814 251.111C437.075 239.645 410.494 207.037 384.262 184.928C377.198 178.974 369.789 171.151 363.902 164.226C360.962 160.767 354.171 150.973 349.26 150.201C337.263 148.314 323.128 149.57 311.262 150.995C303.925 151.876 294.115 153.627 289.495 159.347C286.523 163.027 277.967 165.03 273.51 167.018C269.059 169.004 266.388 173.823 261.182 174.602C252.657 175.878 248.433 160.951 243.99 156.11C234.134 145.371 224.665 134.439 214.688 123.783C200.715 108.857 187.998 94.4666 172.326 81.0594C164.179 74.0891 157.257 66.8978 151.679 58.1909C144.056 46.291 136.553 45.3424 122.127 41.9641C92.9608 35.1333 63.126 32.3306 34.715 22.9537C28.5669 20.9246 21.1547 17.2396 14.5854 16.4396C6.17003 15.4148 -27.9245 17.0431 -24.1891 5.84326C-21.7334 -1.51966 -26.7334 -15.603 -27.5556 -23.2329C-28.3566 -30.6663 -27.93 -37.8053 -29.1288 -45.2439C-30.1655 -51.6763 -26.1187 -57.961 -28.5882 -64.2267C-37.2575 -86.223 -29.7523 -124.166 -57.9541 -133.474C-89.8321 -143.995 -120.871 -149.435 -154.372 -153.514C-159.788 -154.174 -165.8 -156.369 -171.19 -156.735C-177.587 -157.169 -179.093 -163.331 -183.898 -169.085C-197.285 -185.118 -210.796 -200.189 -222.68 -217.101C-229.994 -227.508 -238.254 -237.716 -242.169 -249.685C-247.853 -267.06 -251.802 -281.149 -273.987 -277.924C-305.596 -273.329 -333.806 -258.185 -362.482 -247.446C-370.34 -244.504 -378.577 -241.753 -387.35 -242.189C-390.949 -242.368 -410.507 -240.51 -403.327 -238.14" stroke="#0837A2" stroke-width="3" stroke-linecap="round"/>
<path d="M961.621 606.048C935.871 597.549 923.619 581.571 907.491 562.677C884.984 536.311 856.939 512.314 832.701 487.112C817.761 471.579 799.786 458.308 784.378 443.716C771.345 431.374 745.382 427.48 728.01 421.746C707.67 415.033 687.331 408.321 666.992 401.608C658.269 398.729 636.786 395.525 632.13 387.771C620.655 368.664 604.983 350.062 592.142 331.59C585.076 321.426 574.299 308.606 565.7 300.077C555.272 289.733 537.627 286.669 523.424 281.981C504.236 275.648 485.047 269.315 465.859 262.982C431.12 251.517 404.54 218.909 378.307 196.799C371.243 190.845 363.835 183.022 357.948 176.097C355.008 172.639 348.216 162.845 343.305 162.072C331.309 160.185 317.173 161.442 305.307 162.867C297.971 163.747 288.161 165.498 283.541 171.219C280.569 174.899 272.013 176.901 267.555 178.89C263.104 180.875 260.433 185.694 255.228 186.473C246.703 187.749 242.479 172.822 238.036 167.982C228.179 157.243 218.71 146.311 208.734 135.654C194.761 120.728 182.043 106.338 166.372 92.9307C158.224 85.9605 151.302 78.7691 145.725 70.0622C138.102 58.1624 130.598 57.2138 116.173 53.8354C87.0061 47.0046 57.1713 44.2019 28.7603 34.8251C22.6122 32.7959 15.2 29.1109 8.63075 28.3109C0.215369 27.2861 -33.8792 28.9144 -30.1438 17.7146C-27.6881 10.3517 -32.6881 -3.73167 -33.5103 -11.3616C-34.3113 -18.795 -33.8848 -25.934 -35.0836 -33.3726C-36.1202 -39.805 -32.0734 -46.0897 -34.5429 -52.3554C-43.2121 -74.3517 -35.7071 -112.295 -63.9088 -121.603C-95.7868 -132.124 -126.826 -137.563 -160.326 -141.643C-165.743 -142.303 -171.755 -144.498 -177.144 -144.863C-183.541 -145.297 -185.048 -151.46 -189.852 -157.214C-203.24 -173.246 -216.75 -188.318 -228.635 -205.229C-235.949 -215.637 -244.209 -225.845 -248.124 -237.814C-253.807 -255.189 -257.757 -269.278 -279.942 -266.052C-311.551 -261.457 -339.761 -246.313 -368.437 -235.575C-376.295 -232.632 -384.531 -229.882 -393.305 -230.318C-396.904 -230.496 -416.462 -228.639 -409.281 -226.269" stroke="#0837A2" stroke-width="3" stroke-linecap="round"/>
<path d="M957.557 613.221C931.808 604.723 919.556 588.744 903.427 569.851C880.92 543.485 852.876 519.488 828.637 494.286C813.698 478.753 795.722 465.482 780.314 450.89C767.282 438.548 741.319 434.654 723.946 428.92C703.607 422.207 683.267 415.494 662.928 408.781C654.206 405.903 632.722 402.699 628.066 394.945C616.592 375.838 600.92 357.236 588.078 338.764C581.013 328.6 570.236 315.78 561.637 307.251C551.208 296.907 533.564 293.842 519.36 289.155C500.172 282.822 480.984 276.489 461.796 270.156C427.056 258.69 400.476 226.083 374.244 203.973C367.179 198.019 359.771 190.196 353.884 183.271C350.944 179.812 344.153 170.019 339.242 169.246C327.245 167.359 313.11 168.616 301.244 170.04C293.907 170.921 284.097 172.672 279.477 178.393C276.505 182.072 267.949 184.075 263.492 186.063C259.041 188.049 256.37 192.868 251.164 193.647C242.639 194.923 238.415 179.996 233.972 175.156C224.115 164.417 214.647 153.484 204.67 142.828C190.697 127.902 177.98 113.512 162.308 100.105C154.161 93.1343 147.239 85.943 141.661 77.2361C134.038 65.3362 126.535 64.3876 112.109 61.0092C82.9427 54.1785 53.1079 51.3758 24.6968 41.9989C18.5487 39.9698 11.1365 36.2847 4.56728 35.4847C-3.84811 34.4599 -37.9427 36.0882 -34.2073 24.8884C-31.7515 17.5255 -36.7516 3.44216 -37.5738 -4.1878C-38.3748 -11.6212 -37.9482 -18.7601 -39.147 -26.1988C-40.1837 -32.6312 -36.1368 -38.9158 -38.6063 -45.1816C-47.2756 -67.1779 -39.7705 -105.121 -67.9723 -114.429C-99.8503 -124.95 -130.889 -130.39 -164.39 -134.469C-169.806 -135.129 -175.818 -137.324 -181.208 -137.69C-187.605 -138.123 -189.111 -144.286 -193.916 -150.04C-207.303 -166.073 -220.814 -181.144 -232.699 -198.056C-240.012 -208.463 -248.272 -218.671 -252.187 -230.64C-257.871 -248.015 -261.82 -262.104 -284.005 -258.879C-315.614 -254.284 -343.824 -239.14 -372.5 -228.401C-380.358 -225.458 -388.595 -222.708 -397.368 -223.144C-400.967 -223.323 -420.525 -221.465 -413.345 -219.095" stroke="#0837A2" stroke-width="3" stroke-linecap="round"/>
<path d="M955.569 621.08C929.82 612.582 917.568 596.603 901.44 577.71C878.932 551.344 850.888 527.347 826.649 502.145C811.71 486.611 793.734 473.341 778.327 458.749C765.294 446.407 739.331 442.513 721.958 436.779C701.619 430.066 681.28 423.353 660.94 416.64C652.218 413.762 630.735 410.558 626.078 402.804C614.604 383.696 598.932 365.095 586.091 346.623C579.025 336.459 568.248 323.639 559.649 315.11C549.22 304.766 531.576 301.701 517.372 297.013C498.184 290.681 478.996 284.348 459.808 278.015C425.069 266.549 398.488 233.941 372.256 211.832C365.192 205.878 357.783 198.055 351.897 191.13C348.956 187.671 342.165 177.878 337.254 177.105C325.257 175.218 311.122 176.474 299.256 177.899C291.92 178.78 282.109 180.531 277.489 186.251C274.518 189.931 265.962 191.934 261.504 193.922C257.053 195.908 254.382 200.727 249.176 201.506C240.651 202.782 236.427 187.855 231.984 183.014C222.128 172.276 212.659 161.343 202.683 150.687C188.71 135.761 175.992 121.371 160.32 107.963C152.173 100.993 145.251 93.8018 139.674 85.095C132.051 73.1951 124.547 72.2465 110.122 68.8681C80.9549 62.0373 51.1201 59.2346 22.709 49.8578C16.5609 47.8286 9.14873 44.1436 2.57948 43.3436C-5.8359 42.3188 -39.9305 43.9471 -36.1951 32.7473C-33.7393 25.3844 -38.7394 11.301 -39.5616 3.67109C-40.3626 -3.7623 -39.936 -10.9012 -41.1348 -18.3399C-42.1715 -24.7723 -38.1246 -31.0569 -40.5941 -37.3227C-49.2634 -59.319 -41.7583 -97.2623 -69.9601 -106.57C-101.838 -117.091 -132.877 -122.531 -166.377 -126.61C-171.794 -127.27 -177.806 -129.465 -183.196 -129.831C-189.593 -130.265 -191.099 -136.427 -195.904 -142.181C-209.291 -158.214 -222.801 -173.285 -234.686 -190.197C-242 -200.604 -250.26 -210.812 -254.175 -222.781C-259.859 -240.156 -263.808 -254.245 -285.993 -251.02C-317.602 -246.425 -345.812 -231.281 -374.488 -220.542C-382.346 -217.6 -390.583 -214.849 -399.356 -215.285C-402.955 -215.464 -422.513 -213.606 -415.333 -211.236" stroke="#0837A2" stroke-width="3" stroke-linecap="round"/>
<path d="M48.2758 528.17C28.1269 540.924 12.2644 552.141 -12.5 552.141L-0.524776 1671H1435.78V195.136C1442.69 195.136 1426.72 187.323 1423.6 186.375C1416.01 184.063 1409.95 178.924 1404.29 173.72C1383.61 154.733 1364.84 131.75 1339.58 117.627C1321.84 107.714 1313.68 119.73 1302.91 134.297C1295.5 144.332 1285 151.363 1275.23 158.876C1259.36 171.083 1242.74 181.057 1225.9 191.972C1219.85 195.89 1216.47 201.215 1210.89 199.638C1206.19 198.31 1200.33 198.508 1195.51 197.448C1165.68 190.891 1137.47 186.375 1106.81 186.375C1079.68 186.375 1073.09 224.363 1058.21 242.347C1053.97 247.47 1055.26 254.632 1052.18 260.356C1048.62 266.975 1046.55 273.817 1043.33 280.554C1040.02 287.47 1030.96 299.155 1030.53 306.837C1029.87 318.521 1001.49 306.415 993.991 304.768C988.141 303.482 980.589 304.647 974.676 304.647C947.352 304.647 921.065 298.026 893.97 295.399C880.569 294.1 873.874 292.664 863.336 301.483C855.625 307.936 847.291 312.547 837.992 316.571C820.105 324.311 804.391 333.89 787.428 343.584C775.316 350.505 763.541 357.842 751.503 364.877C746.077 368.049 737.39 380.767 730.589 376.924C726.436 374.577 725.815 369.219 722.715 365.973C719.61 362.721 713.031 358.185 711.765 353.805C709.798 346.995 702.068 342.307 696.141 339.203C686.554 334.184 674.983 328.618 664.154 326.67C659.721 325.873 650.608 332.971 646.93 335.31C639.565 339.992 630.602 345.046 622.57 348.451C592.744 361.093 559.035 383.494 525.624 383.494H470.262C456.601 383.494 440.575 380.901 428.186 387.388C417.971 392.737 404.441 401.443 394.968 408.803C377.754 422.181 358.092 434.802 341.82 449.201C335.218 455.044 315.884 451.391 307.496 451.391H248.811C232.103 451.391 208.731 446.997 193.449 454.555C175.381 463.489 155.586 470.386 137.594 480.35C108.404 496.518 76.3941 510.372 48.2758 528.17Z" fill="white" stroke="#0A41BC" stroke-width="3" stroke-linecap="round"/>
<path d="M48.2758 528.17C28.1269 540.924 12.2644 552.141 -12.5 552.141L-27 2477.5L1475.5 2466L1454 199.638C1460.91 199.638 1426.72 187.323 1423.6 186.375C1416.01 184.063 1409.96 178.924 1404.29 173.72C1383.61 154.733 1364.84 131.75 1339.58 117.627C1321.84 107.714 1313.68 119.73 1302.91 134.297C1295.5 144.332 1285 151.363 1275.23 158.876C1259.36 171.083 1242.74 181.057 1225.9 191.972C1219.85 195.89 1216.47 201.215 1210.89 199.638C1206.19 198.31 1200.34 198.508 1195.51 197.448C1165.68 190.891 1137.47 186.375 1106.81 186.375C1079.69 186.375 1073.09 224.363 1058.21 242.347C1053.97 247.47 1055.26 254.632 1052.18 260.356C1048.62 266.975 1046.55 273.817 1043.33 280.554C1040.02 287.47 1030.96 299.155 1030.53 306.837C1029.87 318.521 1001.49 306.415 993.992 304.768C988.141 303.482 980.589 304.647 974.676 304.647C947.352 304.647 921.065 298.026 893.97 295.399C880.569 294.1 873.874 292.664 863.336 301.483C855.625 307.936 847.291 312.547 837.992 316.571C820.106 324.311 804.391 333.89 787.428 343.584C775.316 350.505 763.542 357.842 751.503 364.877C746.077 368.049 737.39 380.767 730.589 376.924C726.436 374.577 725.815 369.219 722.715 365.973C719.61 362.721 713.031 358.185 711.765 353.805C709.798 346.995 702.068 342.307 696.141 339.203C686.554 334.184 674.983 328.618 664.154 326.67C659.721 325.873 650.608 332.971 646.93 335.31C639.565 339.992 630.603 345.046 622.57 348.451C592.744 361.093 559.035 383.494 525.624 383.494H470.262C456.601 383.494 440.575 380.901 428.186 387.388C417.971 392.737 404.441 401.443 394.969 408.803C377.754 422.181 358.092 434.802 341.82 449.201C335.218 455.044 315.884 451.391 307.496 451.391H248.811C232.103 451.391 208.731 446.997 193.449 454.555C175.381 463.489 155.586 470.386 137.594 480.35C108.404 496.518 76.3941 510.372 48.2758 528.17Z" fill="white" stroke="#0A41BC" stroke-width="3" stroke-linecap="round"/>
<path d="M-12.5 567C12.3156 567 28.2109 555.787 48.4015 543.037C76.5781 525.244 108.654 511.395 137.905 495.233C155.934 485.271 175.77 478.377 193.875 469.445C209.189 461.89 232.609 466.283 249.352 466.283C268.954 466.283 288.556 466.283 308.158 466.283C316.564 466.283 335.937 469.934 342.554 464.093C358.858 449.699 378.562 437.082 395.812 423.709C405.303 416.35 418.862 407.647 429.098 402.3C441.512 395.816 457.572 398.408 471.26 398.408C489.753 398.408 508.245 398.408 526.738 398.408C560.217 398.408 593.996 376.014 623.884 363.376C631.933 359.972 640.915 354.919 648.294 350.239C651.98 347.901 661.111 340.805 665.554 341.602C676.406 343.549 688 349.113 697.607 354.131C703.547 357.234 711.293 361.92 713.264 368.728C714.532 373.107 721.125 377.641 724.236 380.892C727.343 384.137 727.965 389.493 732.126 391.839C738.941 395.682 747.647 382.967 753.084 379.797C765.147 372.764 776.946 365.429 789.083 358.51C806.081 348.819 821.828 339.243 839.752 331.506C849.07 327.484 857.421 322.874 865.148 316.423C875.708 307.606 882.416 309.042 895.845 310.341C922.997 312.967 949.338 319.585 976.719 319.585C982.644 319.585 990.211 318.422 996.074 319.707C1003.58 321.354 1032.03 333.456 1032.69 321.775C1033.12 314.096 1042.2 302.414 1045.51 295.501C1048.74 288.765 1050.82 281.926 1054.39 275.309C1057.47 269.587 1056.18 262.427 1060.43 257.306C1075.34 239.328 1081.94 201.352 1109.12 201.352C1139.85 201.352 1168.11 205.866 1198.01 212.421C1202.84 213.481 1208.71 213.283 1213.42 214.611C1219.01 216.187 1222.4 210.863 1228.46 206.947C1245.34 196.036 1262 186.065 1277.9 173.861C1287.68 166.351 1298.21 159.322 1305.64 149.29C1316.42 134.728 1324.61 122.716 1342.37 132.626C1367.69 146.744 1386.5 169.72 1407.22 188.701C1412.9 193.903 1418.96 199.041 1426.58 201.352C1429.7 202.3 1445.7 210.11 1438.78 210.11" stroke="#0A41BC" stroke-width="3" stroke-linecap="round"/>
<path d="M-11.5 580C13.3156 580 29.2109 568.787 49.4015 556.037C77.5781 538.244 109.654 524.395 138.905 508.233C156.934 498.271 176.77 491.377 194.875 482.445C210.189 474.89 233.609 479.283 250.352 479.283C269.954 479.283 289.556 479.283 309.158 479.283C317.564 479.283 336.937 482.934 343.554 477.093C359.858 462.699 379.562 450.082 396.812 436.709C406.303 429.35 419.862 420.647 430.098 415.3C442.512 408.816 458.572 411.408 472.26 411.408C490.753 411.408 509.245 411.408 527.738 411.408C561.217 411.408 594.996 389.014 624.884 376.376C632.933 372.972 641.915 367.919 649.294 363.239C652.98 360.901 662.111 353.805 666.554 354.602C677.406 356.549 689 362.113 698.607 367.131C704.547 370.234 712.293 374.92 714.264 381.728C715.532 386.107 722.125 390.641 725.236 393.892C728.343 397.137 728.965 402.493 733.126 404.839C739.941 408.682 748.647 395.967 754.084 392.797C766.147 385.764 777.946 378.429 790.083 371.51C807.081 361.819 822.828 352.243 840.752 344.506C850.07 340.484 858.421 335.874 866.148 329.423C876.708 320.606 883.416 322.042 896.845 323.341C923.997 325.967 950.338 332.585 977.719 332.585C983.644 332.585 991.211 331.422 997.074 332.707C1004.58 334.354 1033.03 346.456 1033.69 334.775C1034.12 327.096 1043.2 315.414 1046.51 308.501C1049.74 301.765 1051.82 294.926 1055.39 288.309C1058.47 282.587 1057.18 275.427 1061.43 270.306C1076.34 252.328 1082.94 214.352 1110.12 214.352C1140.85 214.352 1169.11 218.866 1199.01 225.421C1203.84 226.481 1209.71 226.283 1214.42 227.611C1220.01 229.187 1223.4 223.863 1229.46 219.947C1246.34 209.036 1263 199.065 1278.9 186.861C1288.68 179.351 1299.21 172.322 1306.64 162.29C1317.42 147.728 1325.61 135.716 1343.37 145.626C1368.69 159.744 1387.5 182.72 1408.22 201.701C1413.9 206.903 1419.96 212.041 1427.58 214.352C1430.7 215.3 1446.7 223.11 1439.78 223.11" stroke="#0A41BC" stroke-width="3" stroke-linecap="round"/>
<path d="M-10.5 588C14.3156 588 30.2109 576.787 50.4015 564.037C78.5781 546.244 110.654 532.395 139.905 516.233C157.934 506.271 177.77 499.377 195.875 490.445C211.189 482.89 234.609 487.283 251.352 487.283C270.954 487.283 290.556 487.283 310.158 487.283C318.564 487.283 337.937 490.934 344.554 485.093C360.858 470.699 380.562 458.082 397.812 444.709C407.303 437.35 420.862 428.647 431.098 423.3C443.512 416.816 459.572 419.408 473.26 419.408C491.753 419.408 510.245 419.408 528.738 419.408C562.217 419.408 595.996 397.014 625.884 384.376C633.933 380.972 642.915 375.919 650.294 371.239C653.98 368.901 663.111 361.805 667.554 362.602C678.406 364.549 690 370.113 699.607 375.131C705.547 378.234 713.293 382.92 715.264 389.728C716.532 394.107 723.125 398.641 726.236 401.892C729.343 405.137 729.965 410.493 734.126 412.839C740.941 416.682 749.647 403.967 755.084 400.797C767.147 393.764 778.946 386.429 791.083 379.51C808.081 369.819 823.828 360.243 841.752 352.506C851.07 348.484 859.421 343.874 867.148 337.423C877.708 328.606 884.416 330.042 897.845 331.341C924.997 333.967 951.338 340.585 978.719 340.585C984.644 340.585 992.211 339.422 998.074 340.707C1005.58 342.354 1034.03 354.456 1034.69 342.775C1035.12 335.096 1044.2 323.414 1047.51 316.501C1050.74 309.765 1052.82 302.926 1056.39 296.309C1059.47 290.587 1058.18 283.427 1062.43 278.306C1077.34 260.328 1083.94 222.352 1111.12 222.352C1141.85 222.352 1170.11 226.866 1200.01 233.421C1204.84 234.481 1210.71 234.283 1215.42 235.611C1221.01 237.187 1224.4 231.863 1230.46 227.947C1247.34 217.036 1264 207.065 1279.9 194.861C1289.68 187.351 1300.21 180.322 1307.64 170.29C1318.42 155.728 1326.61 143.716 1344.37 153.626C1369.69 167.744 1388.5 190.72 1409.22 209.701C1414.9 214.903 1420.96 220.041 1428.58 222.352C1431.7 223.3 1447.7 231.11 1440.78 231.11" stroke="#0A41BC" stroke-width="3" stroke-linecap="round"/>
<path d="M-11.5 596C13.3156 596 29.2109 584.787 49.4015 572.037C77.5781 554.244 109.654 540.395 138.905 524.233C156.934 514.271 176.77 507.377 194.875 498.445C210.189 490.89 233.609 495.283 250.352 495.283C269.954 495.283 289.556 495.283 309.158 495.283C317.564 495.283 336.937 498.934 343.554 493.093C359.858 478.699 379.562 466.082 396.812 452.709C406.303 445.35 419.862 436.647 430.098 431.3C442.512 424.816 458.572 427.408 472.26 427.408C490.753 427.408 509.245 427.408 527.738 427.408C561.217 427.408 594.996 405.014 624.884 392.376C632.933 388.972 641.915 383.919 649.294 379.239C652.98 376.901 662.111 369.805 666.554 370.602C677.406 372.549 689 378.113 698.607 383.131C704.547 386.234 712.293 390.92 714.264 397.728C715.532 402.107 722.125 406.641 725.236 409.892C728.343 413.137 728.965 418.493 733.126 420.839C739.941 424.682 748.647 411.967 754.084 408.797C766.147 401.764 777.946 394.429 790.083 387.51C807.081 377.819 822.828 368.243 840.752 360.506C850.07 356.484 858.421 351.874 866.148 345.423C876.708 336.606 883.416 338.042 896.845 339.341C923.997 341.967 950.338 348.585 977.719 348.585C983.644 348.585 991.211 347.422 997.074 348.707C1004.58 350.354 1033.03 362.456 1033.69 350.775C1034.12 343.096 1043.2 331.414 1046.51 324.501C1049.74 317.765 1051.82 310.926 1055.39 304.309C1058.47 298.587 1057.18 291.427 1061.43 286.306C1076.34 268.328 1082.94 230.352 1110.12 230.352C1140.85 230.352 1169.11 234.866 1199.01 241.421C1203.84 242.481 1209.71 242.283 1214.42 243.611C1220.01 245.187 1223.4 239.863 1229.46 235.947C1246.34 225.036 1263 215.065 1278.9 202.861C1288.68 195.351 1299.21 188.322 1306.64 178.29C1317.42 163.728 1325.61 151.716 1343.37 161.626C1368.69 175.744 1387.5 198.72 1408.22 217.701C1413.9 222.903 1419.96 228.041 1427.58 230.352C1430.7 231.3 1446.7 239.11 1439.78 239.11" stroke="#0A41BC" stroke-width="3" stroke-linecap="round"/>
</svg>
