<?xml version="1.0" encoding="UTF-8"?>
<svg id="Layer_1" data-name="Layer 1" xmlns="http://www.w3.org/2000/svg" viewBox="0 0 650 195">
  <defs>
    <style>
      .cls-1 {
        fill: #ff4900;
      }
    </style>
  </defs>
  <path class="cls-1" d="M188.96,7.14s-23.85,73.41,0,117.17,29.81-30.14,29.81-30.14l-7.95-13.28-9.94,13.28-11.92-87.03Z"/>
  <path class="cls-1" d="M227.87,5.38s90.31,109.34-41.56,181.18c17.54,12.41,28.61,2.84,28.61,2.84,94.13-62.08,88.42-123.34,12.95-184.02Z"/>
  <path class="cls-1" d="M.75,20.13c27.09,19.28,64.01,30.3,122.9,22.91-21.48,21.78-43.13,53.54-64.87,90.61C19.64,84.65,7.57,91.14,7.57,91.14c26.22,43.21,51.68,88.94,88.51,97.3l-27.57-40.33c15.91-35.83,45.24-76.81,86.76-127.99-56.29,7.08-107.8,7.08-154.52,0Z"/>
  <path class="cls-1" d="M374.03,33.59s-52.4,4.65-72.45-1.08c-5.18,5.73,20.7,47.09,20.7,47.09-6.69-24.95-.65-28.29-.65-28.29,47.67-7.03,80.85-4.28,131.97-2.99-23.97,57.75-49.21,114.37-103.51,145.18,102.86-10.61,84.46-94.09,132.62-160.98l-90.57,1.08v-16.57c-6.47-42.82-18.11,16.57-18.11,16.57Z"/>
  <path class="cls-1" d="M504.12,15.72s7.07,22.58,119.21,15.22c-37.71,78.37-118.6,130.13-129.58,153.64l3.77,8.34c16.81-14.61,35.72-32.97,74.92-61.85,15.04,24.1,26.29,39.68,62.67,54.48-16.47-11.22-37.84-35.56-53.24-68.23,19.12-21.72,44.76-52.1,67.38-101.61-47.91,3.02-95.08,10.77-145.13,0Z"/>
</svg>