<svg width="1440" height="104" viewBox="0 0 1440 104" fill="none" xmlns="http://www.w3.org/2000/svg">
<path d="M45.0002 95.2137C34.5002 79.5299 4.50024 60.3317 -11.8204 49.7439L-13.2412 -1.43359L1451.44 -42.0967L1454.04 51.3922C1449.34 57.859 1443.19 64.714 1438.83 70.0661C1436.23 73.2618 1430.78 74.2601 1427.2 76.2294C1415.99 82.4111 1409.02 74.544 1398.07 74.848C1387.97 75.1285 1374.81 73.5754 1365.67 69.1769C1360.86 66.8601 1357.29 66.6081 1353.55 69.9191C1352.14 71.1656 1346.44 76.0718 1344.64 76.3315C1336.31 77.5328 1331.09 91.309 1322.25 91.5542C1302.67 92.0979 1282.85 87.4845 1263.16 87.3543C1238.19 87.1891 1215.29 79.3684 1190.63 77.7678C1177.26 76.8998 1168.79 80.2174 1159.75 89.0894C1155.54 93.2227 1157.79 94.7 1150.88 93.4729C1144.27 92.2997 1137.69 92.0232 1131.04 90.2921C1116.6 86.5334 1100.25 86.6466 1085.38 85.3136L1084.88 85.2686C1067.15 83.6797 1050.45 82.1833 1033.27 77.6751C1019.35 74.0234 1005.87 68.4189 991.935 64.9513C981.728 62.4114 974.221 60.6526 964.5 64.9829C955.008 69.2115 945.25 75.7383 934.139 76.0468C924.457 76.3156 912.437 74.4203 902.606 73.2718C887.869 71.5501 873.105 69.9893 858.421 67.9279C847.29 66.3654 836.362 64.3143 825.247 62.6839C811.29 60.6365 800.363 53.525 787.492 49.7796C784.63 48.9466 774.886 50.6227 772.265 52.0681C768.236 54.2899 758.4 55.2064 753.593 56.1557C738.95 59.0474 723.759 62.6932 708.971 66.561C691.377 71.1626 674.154 76.7806 656.72 82.2884C649.352 84.6161 642.809 89.4593 635.389 91.317C628.495 93.0428 621.825 94.8794 615.47 97.7105C607.412 101.3 593.203 100.762 585.605 95.2138C581.922 92.5238 574.206 91.2741 569.629 89.4112C560.857 85.8405 550.872 84.2221 542.611 79.2913C526.348 69.5836 515.82 67.2184 497.292 67.7328C486.478 68.033 467.807 66.3549 458.727 72.8593C455.555 75.1316 449.705 75.0546 445.828 77.1923C443.014 78.744 436.362 81.1054 433.357 81.1888C425.588 81.4045 416.172 90.3237 407.848 84.4928C403.66 81.5589 396.016 80.4475 390.847 79.5299C385.975 78.665 381.419 76.4043 376.581 75.5455C362.057 72.967 347.46 69.3987 332.738 66.7851C318.733 64.2988 304.603 62.5425 290.531 60.3317C280.861 58.8125 269.639 57.5653 260.4 54.5165C256.202 53.1316 248.015 48.1305 244.536 49.6031C241.253 50.9926 232.648 52.8113 228.91 53.2816C215.305 54.9936 202.469 60.3066 189.923 65.2339C181.185 68.6656 171.858 70.5285 163.821 75.5306C160.879 77.3616 158.17 83.6279 155.808 82.7292C143.238 77.9463 127.329 77.0753 113.908 74.7261C95.5002 77.1923 64.0002 84.4928 45.0002 95.2137Z" fill="white" stroke="#0A41BC" stroke-width="3" stroke-linecap="round"/>
<path d="M48.4998 86C30.4998 73 10.9998 55.5 -11.2198 41.833L-12.6406 -9.34448L1452.04 -50.0075L1454.64 43.4813C1449.94 49.9481 1443.79 56.8031 1439.43 62.1552C1436.83 65.3509 1431.38 66.3493 1427.8 68.3185C1416.59 74.5002 1409.62 66.6331 1398.67 66.9372C1388.57 67.2176 1375.41 65.6645 1366.27 61.266C1361.46 58.9492 1357.89 58.6972 1354.15 62.0082C1352.74 63.2547 1347.04 68.1609 1345.24 68.4206C1336.91 69.6219 1331.69 83.3981 1322.86 83.6433C1303.27 84.187 1283.45 79.5736 1263.76 79.4434C1238.79 79.2782 1215.89 71.4575 1191.23 69.8569C1177.86 68.9889 1169.4 72.3065 1160.36 81.1785C1156.14 85.3119 1158.39 86.7892 1151.48 85.562C1144.87 84.3888 1138.29 84.1123 1131.64 82.3812C1117.2 78.6225 1100.85 78.7357 1085.98 77.4027L1085.48 77.3577C1067.75 75.7689 1051.05 74.2724 1033.87 69.7642C1019.95 66.1125 1006.47 60.508 992.536 57.0404C982.329 54.5005 974.821 52.7417 965.101 57.072C955.609 61.3006 945.851 67.8274 934.739 68.1359C925.058 68.4047 913.037 66.5094 903.207 65.361C888.47 63.6392 873.706 62.0784 859.021 60.017C847.891 58.4546 836.963 56.4034 825.848 54.773C811.891 52.7256 800.963 45.6141 788.093 41.8688C785.23 41.0357 775.487 42.7118 772.866 44.1572C768.836 46.3791 759.001 47.2955 754.193 48.2448C739.551 51.1365 724.359 54.7823 709.571 58.6501C691.977 63.2517 674.754 68.8697 657.32 74.3776C649.953 76.7052 643.41 81.5484 635.989 83.4061C629.096 85.1319 622.425 86.9685 616.07 89.7996C608.013 93.3891 593.804 92.8507 586.206 87.3029C582.522 84.6129 574.807 83.3632 570.23 81.5003C561.458 77.9297 551.472 76.3112 543.212 71.3804C526.949 61.6727 516.42 59.3075 497.893 59.8219C487.079 60.1221 468.407 58.444 459.328 64.9485C456.156 67.2207 450.306 67.1437 446.429 69.2814C443.615 70.8332 436.962 73.1945 433.958 73.2779C426.189 73.4936 416.772 82.4128 408.449 76.5819C404.26 73.648 396.616 72.5367 391.447 71.619C386.576 70.7541 382.02 68.4935 377.182 67.6346C362.657 65.0561 348.06 61.4878 333.338 58.8742C319.333 56.3879 305.203 54.6316 291.131 52.4208C281.462 50.9016 270.24 49.6544 261 46.6056C256.803 45.2207 248.615 40.2196 245.136 41.6922C241.853 43.0817 233.249 44.9004 229.511 45.3708C215.905 47.0827 203.07 52.3957 190.524 57.323C181.786 60.7547 172.459 62.6176 164.422 67.6197C161.48 69.4508 158.77 75.717 156.409 74.8183C143.838 70.0354 127.929 69.1644 114.508 66.8152C95.4998 70 75.9998 76.9997 48.4998 86Z" stroke="#0A41BC" stroke-width="3" stroke-linecap="round"/>
<path d="M51.5 79.5C34.5 66.5493 8 47 -14.4503 33.564L-15.8711 -17.6135L1448.81 -58.2766L1451.41 35.2123C1446.71 41.6791 1440.56 48.5341 1436.2 53.8862C1433.6 57.0819 1428.15 58.0802 1424.57 60.0495C1413.36 66.2312 1406.39 58.3641 1395.44 58.6681C1385.34 58.9486 1372.18 57.3954 1363.04 52.997C1358.23 50.6802 1354.66 50.4282 1350.92 53.7392C1349.51 54.9857 1343.81 59.8919 1342.01 60.1515C1333.68 61.3529 1328.46 75.1291 1319.62 75.3743C1300.04 75.918 1280.22 71.3046 1260.53 71.1744C1235.56 71.0091 1212.66 63.1885 1188 61.5879C1174.63 60.7198 1166.16 64.0375 1157.13 72.9094C1152.91 77.0428 1155.16 78.5201 1148.25 77.293C1141.64 76.1198 1135.06 75.8433 1128.41 74.1122C1113.97 70.3535 1097.62 70.4667 1082.75 69.1337L1082.25 69.0887C1064.52 67.4998 1047.82 66.0034 1030.64 61.4952C1016.72 57.8435 1003.24 52.239 989.305 48.7714C979.098 46.2315 971.591 44.4726 961.87 48.803C952.378 53.0316 942.62 59.5584 931.509 59.8668C921.827 60.1356 909.807 58.2404 899.977 57.0919C885.239 55.3702 870.475 53.8094 855.791 51.748C844.66 50.1855 833.732 48.1344 822.617 46.504C808.66 44.4565 797.733 37.3451 784.862 33.5997C782 32.7667 772.256 34.4427 769.635 35.8882C765.606 38.11 755.77 39.0264 750.963 39.9758C736.32 42.8675 721.129 46.5133 706.341 50.381C688.747 54.9826 671.524 60.6006 654.09 66.1085C646.722 68.4361 640.179 73.2794 632.759 75.137C625.865 76.8628 619.195 78.6995 612.84 81.5306C604.782 85.1201 590.573 84.5817 582.976 79.0338C579.292 76.3439 571.576 75.0941 566.999 73.2312C558.227 69.6606 548.242 68.0422 539.982 63.1114C523.719 53.4036 513.19 51.0385 494.662 51.5528C483.849 51.853 465.177 50.1749 456.097 56.6794C452.925 58.9516 447.075 58.8747 443.199 61.0123C440.384 62.5641 433.732 64.9255 430.727 65.0089C422.958 65.2246 413.542 74.1438 405.218 68.3129C401.03 65.379 393.386 64.2676 388.217 63.3499C383.345 62.4851 378.789 60.2244 373.951 59.3656C359.427 56.787 344.83 53.2188 330.108 50.6052C316.103 48.1189 301.973 46.3626 287.901 44.1518C278.231 42.6326 267.009 41.3854 257.77 38.3366C253.573 36.9516 245.385 31.9505 241.906 33.4232C238.623 34.8127 230.018 36.6314 226.28 37.1017C212.675 38.8136 199.839 44.1267 187.293 49.054C178.555 52.4857 169.228 54.3486 161.191 59.3506C158.25 61.1817 155.54 67.448 153.178 66.5493C140.608 61.7663 124.699 60.8954 111.278 58.5461C96 64 70.5 73.5 51.5 79.5Z" stroke="#0A41BC" stroke-width="3" stroke-linecap="round"/>
<path d="M53 71.5C34 61 9.5 42.5 -13.5797 28.896L-15.0005 -22.2815L1449.68 -62.9446L1452.28 30.5443C1447.58 37.0111 1441.43 43.8661 1437.07 49.2182C1434.47 52.4139 1429.02 53.4122 1425.44 55.3815C1414.23 61.5632 1407.26 53.6961 1396.31 54.0001C1386.21 54.2806 1373.05 52.7275 1363.91 48.329C1359.1 46.0122 1355.53 45.7602 1351.79 49.0712C1350.38 50.3177 1344.68 55.2239 1342.88 55.4836C1334.55 56.6849 1329.33 70.4611 1320.5 70.7063C1300.91 71.25 1281.09 66.6366 1261.4 66.5064C1236.43 66.3412 1213.53 58.5205 1188.87 56.9199C1175.5 56.0519 1167.04 59.3695 1158 68.2415C1153.78 72.3748 1156.03 73.8521 1149.12 72.625C1142.51 71.4518 1135.93 71.1753 1129.28 69.4442C1114.84 65.6855 1098.49 65.7987 1083.62 64.4657L1083.12 64.4207C1065.39 62.8318 1048.69 61.3354 1031.51 56.8272C1017.59 53.1755 1004.11 47.571 990.176 44.1034C979.969 41.5635 972.462 39.8047 962.741 44.135C953.249 48.3636 943.491 54.8904 932.379 55.1989C922.698 55.4677 910.678 53.5724 900.847 52.4239C886.11 50.7022 871.346 49.1414 856.661 47.08C845.531 45.5175 834.603 43.4664 823.488 41.836C809.531 39.7886 798.603 32.6771 785.733 28.9317C782.87 28.0987 773.127 29.7748 770.506 31.2202C766.477 33.442 756.641 34.3585 751.833 35.3078C737.191 38.1995 721.999 41.8453 707.211 45.7131C689.617 50.3147 672.394 55.9327 654.96 61.4405C647.593 63.7682 641.05 68.6114 633.629 70.4691C626.736 72.1949 620.066 74.0315 613.711 76.8626C605.653 80.4521 591.444 79.9137 583.846 74.3659C580.162 71.6759 572.447 70.4262 567.87 68.5633C559.098 64.9926 549.112 63.3742 540.852 58.4434C524.589 48.7357 514.061 46.3705 495.533 46.8849C484.719 47.1851 466.047 45.507 456.968 52.0114C453.796 54.2837 447.946 54.2067 444.069 56.3444C441.255 57.8961 434.602 60.2575 431.598 60.3409C423.829 60.5566 414.413 69.4758 406.089 63.6449C401.9 60.711 394.257 59.5996 389.087 58.682C384.216 57.8171 379.66 55.5564 374.822 54.6976C360.297 52.1191 345.7 48.5508 330.978 45.9372C316.973 43.4509 302.843 41.6946 288.772 39.4838C279.102 37.9646 267.88 36.7174 258.64 33.6686C254.443 32.2837 246.256 27.2826 242.776 28.7552C239.493 30.1447 230.889 31.9634 227.151 32.4337C213.546 34.1457 200.71 39.4587 188.164 44.386C179.426 47.8177 170.099 49.6806 162.062 54.6827C159.12 56.5137 156.411 62.78 154.049 61.8813C141.478 57.0984 125.57 56.2274 112.148 53.8782C93.5 58.5 76 62.3813 53 71.5Z" stroke="#0A41BC" stroke-width="3" stroke-linecap="round"/>
</svg>
