<svg width="1440" height="140" viewBox="0 0 1440 140" fill="none" xmlns="http://www.w3.org/2000/svg">
<path d="M-4.25 55.9202C51.3304 55.9202 99.7138 92.3952 152.689 107.531C161.231 109.972 158.065 109.497 162.827 105.688C168.006 101.544 173.332 96.3673 178.099 91.6001C192.049 77.6507 205.712 63.9206 221.415 51.7071C224.464 49.3362 254.395 64.0288 258.938 66.5847C274.623 75.4074 292.845 79.7428 308.048 89.0985C317.747 95.0675 330.808 93.8383 342.016 93.8383C363.409 93.8383 384.764 91.4684 405.739 91.4684C411.56 91.4684 415.646 90.1886 421.144 88.9669C430.074 86.9823 423.602 83.8073 432.861 89.0985C443.594 95.2317 455.734 103.326 467.883 107.531C478.762 111.297 488.796 121.462 499.481 124.515C513.076 128.399 533.266 124.647 547.406 124.647C553.42 124.647 557.557 119.907 563.336 119.907C570.266 119.907 575.668 120.673 582.295 122.145C598.229 125.686 614.947 124.003 630.878 127.543C648.844 131.536 655.511 126.37 669.981 116.352C681.452 108.411 703.871 91.4684 718.564 91.4684C734.402 91.4684 751.079 102.181 766.093 106.873C783.885 112.433 801.071 118.922 818.099 126.49C831.015 132.23 846.628 120.156 857.07 111.612C868.25 102.465 881.82 86.7286 896.831 86.7286C930.141 86.7286 963.451 86.7286 996.761 86.7286C1005.8 86.7286 1013.31 91.0161 1021.91 91.4684C1028.06 91.7921 1032.15 99.5114 1036.65 103.844C1047.05 113.842 1049.57 116.573 1056.27 104.503C1069 111.928 1100.27 42.5974 1114.86 45.914C1141.58 51.9877 1167.42 66.3505 1193.86 74.8792C1216.11 82.0567 1223.93 82.8828 1244.68 72.5094C1266.9 61.4001 1290.22 48.4246 1310.77 34.7229C1325.47 24.9203 1337 27.4185 1351.85 36.9612C1363.12 44.2089 1451.32 85.7973 1453.23 81.9889" stroke="white" stroke-width="3" stroke-linecap="round"/>
<path d="M152.939 120.051C99.9638 104.915 51.5804 68.4402 -4 68.4402V425H1453.48V94.5089C1451.57 98.3174 1363.37 56.7289 1352.1 49.4812C1337.25 39.9385 1325.72 37.4404 1311.02 47.243C1290.47 60.9446 1267.15 73.9202 1244.93 85.0294C1224.18 95.4028 1216.36 94.5768 1194.11 87.3993C1167.67 78.8705 1141.83 64.5077 1115.11 58.4341C1100.52 55.1174 1069.25 124.448 1056.52 117.023C1049.93 128.893 1047.39 126.449 1037.41 116.855L1036.9 116.364C1032.4 112.031 1028.31 104.312 1022.16 103.988C1013.56 103.536 1006.05 99.2487 997.011 99.2487H897.081C882.07 99.2487 868.5 114.985 857.32 124.132C846.878 132.676 831.265 144.75 818.349 139.01C801.321 131.442 784.135 124.953 766.343 119.393C751.329 114.701 734.652 103.988 718.814 103.988C704.121 103.988 681.702 120.931 670.231 128.872C655.761 138.89 649.094 144.056 631.128 140.063C615.197 136.523 598.479 138.206 582.545 134.665C575.918 133.193 570.516 132.427 563.586 132.427C557.807 132.427 553.67 137.167 547.656 137.167C533.516 137.167 513.326 140.919 499.731 137.035C489.046 133.982 479.012 123.817 468.133 120.051C455.984 115.846 443.844 107.752 433.111 101.619C423.852 96.3273 430.324 99.5023 421.394 101.487C415.896 102.709 411.81 103.988 405.989 103.988C385.014 103.988 363.659 106.358 342.266 106.358C331.058 106.358 317.997 107.588 308.298 101.619C293.095 92.2628 274.873 87.9274 259.188 79.1047C254.645 76.5488 224.714 61.8562 221.665 64.2271C206.25 76.2164 192.801 89.6672 179.117 103.352L178.349 104.12C173.582 108.887 168.256 114.064 163.077 118.208C158.315 122.017 161.481 122.492 152.939 120.051Z" fill="white" stroke="white" stroke-width="3" stroke-linecap="round"/>
<path d="M-6 44.6C49.5622 44.6 97.9298 81.2868 150.887 96.5104C159.427 98.9652 156.262 98.4875 161.022 94.6564C166.2 90.4885 171.524 85.282 176.29 80.487C190.234 66.4566 203.894 52.6468 219.592 40.3624C222.639 37.9777 252.56 52.7557 257.102 55.3264C272.782 64.2003 290.997 68.5609 306.195 77.9709C315.892 83.9746 328.949 82.7382 340.153 82.7382C361.539 82.7382 382.887 80.3546 403.855 80.3546C409.674 80.3546 413.758 79.0674 419.255 77.8385C428.182 75.8424 421.712 72.649 430.968 77.9709C441.698 84.1397 453.834 92.2807 465.979 96.5104C476.855 100.298 486.885 110.522 497.567 113.593C511.157 117.5 531.341 113.726 545.475 113.726C551.487 113.726 555.623 108.958 561.401 108.958C568.328 108.958 573.729 109.728 580.354 111.209C596.282 114.771 612.994 113.078 628.92 116.639C646.88 120.655 653.546 115.458 668.011 105.383C679.478 97.3952 701.889 80.3546 716.577 80.3546C732.411 80.3546 749.083 91.1293 764.091 95.8483C781.877 101.44 799.058 107.968 816.08 115.58C828.992 121.353 844.6 109.208 855.038 100.616C866.214 91.4153 879.78 75.5873 894.787 75.5873C928.086 75.5873 961.385 75.5873 994.684 75.5873C1003.72 75.5873 1011.23 79.8996 1019.82 80.3546C1025.97 80.6802 1030.06 88.4443 1034.56 92.8025C1044.96 102.859 1047.47 105.605 1054.17 93.4646C1066.9 100.933 1098.16 31.1998 1112.74 34.5357C1139.46 40.6446 1165.28 55.0908 1191.71 63.6691C1213.96 70.8883 1221.78 71.7191 1242.52 61.2855C1264.73 50.1117 1288.04 37.0608 1308.59 23.2796C1323.29 13.4201 1334.82 15.9328 1349.65 25.5308C1360.93 32.8207 1449.1 74.6506 1451 70.82" stroke="white" stroke-width="3" stroke-linecap="round"/>
<path d="M-5 35.6C50.5622 35.6 98.9298 72.2868 151.887 87.5104C160.427 89.9652 157.262 89.4875 162.022 85.6564C167.2 81.4885 172.524 76.282 177.29 71.487C191.234 57.4566 204.894 43.6468 220.592 31.3624C223.639 28.9777 253.56 43.7557 258.102 46.3264C273.782 55.2003 291.997 59.5609 307.195 68.9709C316.892 74.9746 329.949 73.7382 341.153 73.7382C362.539 73.7382 383.887 71.3546 404.855 71.3546C410.674 71.3546 414.758 70.0674 420.255 68.8385C429.182 66.8424 422.712 63.649 431.968 68.9709C442.698 75.1397 454.834 83.2807 466.979 87.5104C477.855 91.2983 487.885 101.522 498.567 104.593C512.157 108.5 532.341 104.726 546.475 104.726C552.487 104.726 556.623 99.9583 562.401 99.9583C569.328 99.9583 574.729 100.728 581.354 102.209C597.282 105.771 613.994 104.078 629.92 107.639C647.88 111.655 654.546 106.458 669.011 96.3828C680.478 88.3952 702.889 71.3546 717.577 71.3546C733.411 71.3546 750.083 82.1293 765.091 86.8483C782.877 92.4405 800.058 98.968 817.08 106.58C829.992 112.353 845.6 100.208 856.038 91.6155C867.214 82.4153 880.78 66.5873 895.787 66.5873C929.086 66.5873 962.385 66.5873 995.684 66.5873C1004.72 66.5873 1012.23 70.8996 1020.82 71.3546C1026.97 71.6802 1031.06 79.4443 1035.56 83.8025C1045.96 93.8585 1048.47 96.6048 1055.17 84.4646C1067.9 91.9332 1099.16 22.1998 1113.74 25.5357C1140.46 31.6446 1166.28 46.0908 1192.71 54.6691C1214.96 61.8883 1222.78 62.7191 1243.52 52.2855C1265.73 41.1117 1289.04 28.0608 1309.59 14.2796C1324.29 4.42013 1335.82 6.93277 1350.65 16.5308C1361.93 23.8207 1450.1 65.6506 1452 61.82" stroke="white" stroke-width="3" stroke-linecap="round"/>
<path d="M-4 29.6C51.5622 29.6 99.9298 66.2868 152.887 81.5104C161.427 83.9652 158.262 83.4875 163.022 79.6564C168.2 75.4885 173.524 70.282 178.29 65.487C192.234 51.4566 205.894 37.6468 221.592 25.3624C224.639 22.9777 254.56 37.7557 259.102 40.3264C274.782 49.2003 292.997 53.5609 308.195 62.9709C317.892 68.9746 330.949 67.7382 342.153 67.7382C363.539 67.7382 384.887 65.3546 405.855 65.3546C411.674 65.3546 415.758 64.0674 421.255 62.8385C430.182 60.8424 423.712 57.649 432.968 62.9709C443.698 69.1397 455.834 77.2807 467.979 81.5104C478.855 85.2983 488.885 95.5224 499.567 98.5931C513.157 102.5 533.341 98.7256 547.475 98.7256C553.487 98.7256 557.623 93.9583 563.401 93.9583C570.328 93.9583 575.729 94.7283 582.354 96.2095C598.282 99.7708 614.994 98.0781 630.92 101.639C648.88 105.655 655.546 100.458 670.011 90.3828C681.478 82.3952 703.889 65.3546 718.577 65.3546C734.411 65.3546 751.083 76.1293 766.091 80.8483C783.877 86.4405 801.058 92.968 818.08 100.58C830.992 106.353 846.6 94.2085 857.038 85.6155C868.214 76.4153 881.78 60.5873 896.787 60.5873C930.086 60.5873 963.385 60.5873 996.684 60.5873C1005.72 60.5873 1013.23 64.8996 1021.82 65.3546C1027.97 65.6802 1032.06 73.4443 1036.56 77.8025C1046.96 87.8585 1049.47 90.6048 1056.17 78.4646C1068.9 85.9332 1100.16 16.1998 1114.74 19.5357C1141.46 25.6446 1167.28 40.0908 1193.71 48.6691C1215.96 55.8883 1223.78 56.7191 1244.52 46.2855C1266.73 35.1117 1290.04 22.0608 1310.59 8.27963C1325.29 -1.57987 1336.82 0.932774 1351.66 10.5308C1362.93 17.8207 1451.1 59.6506 1453 55.82" stroke="white" stroke-width="3" stroke-linecap="round"/>
</svg>
